:::::: UnKnOwN Presents ::::::


::::: Small Town Murder Songs 2010 DVDRIP :::::


::NOTES::


Small Town Murder Songs (2010)
Encoded By .......:UnKnOwN
Runtime: IMDb URL .........:http://www.imdb.com/title/tt1429392/
Language .........:English
File Size ........:700
Release Date ......... 2010
Source ......... DVD
File Type ......... Single AVI
PS3 Compatible ....... Why dont You complain in comments and let me know(:
Genre .........Crime | Thriller


::Video
ID: 0
Format: MPEG-4 Visual
Format profile: Advanced Simple@L5
Format settings, BVOP: Yes
Format settings, QPel: No
Format settings, GMC: No warppoints
Format settings, Matrix: Custom
Codec ID: XVID
Codec ID/Hint: XviD
Duration: 1h 15mn
Bit rate: 1 146 Kbps
Width: 640 pixels
Height: 274 pixels
Display aspect ratio: 2.40:1
Frame rate: 25.000 fps
Color space: YUV
Chroma subsampling: 4:2:0
Bit depth: 8 bits
Scan type: Progressive
Bits/(Pixel*Frame): 0.253
Stream size: 44.7 MiB (4%)
Writing library: XviD 1.2.1 (UTC 2008-12-04)


::Audio::


ID: 1
Format: MPEG Audio
Codec ID: 55
Codec ID/Hint: MP3
Duration: 1h 15mn
Bit rate: 133 Kbps
Channel(s): 2 channels
Sampling rate: 44.1 KHz
Stream size: 107 MiB (9%)
Alignment: Aligned on interleaves


::SYSPNOSIS::


A modern, gothic tale of crime and redemption about an aging police officer
from a small Ontario Mennonite town who hides a violent past until a local
murder upsets the calm of his newly reformed life.


::More Information::

 
http://www.postimg.com/image/42000/photo-41677.jpg


::Screens::

 
http://www.postimg.com/image/42000/photo-41675.jpg
 
http://www.postimg.com/image/42000/photo-41678.jpg
 
http://www.postimg.com/image/42000/photo-41679.jpg


ENJOY!